<svg width="70" height="70" viewBox="0 0 70 70" fill="none" xmlns="http://www.w3.org/2000/svg">
    <g filter="url(#filter0_dd_3743_39291)">
        <rect x="12.9851" y="8.27806" width="44.4375" height="45" rx="10" fill="white"/>
        <path d="M34.7832 22.2202C34.7832 22.2202 32.1832 18.7223 35.6655 15.9333C35.6655 15.9333 37.5723 18.7853 34.7832 22.2202Z" fill="#E7C539"/>
        <path d="M43.4662 44.0877C43.7835 43.7686 44.0884 43.4374 44.3803 43.095C46.213 40.9867 47.5103 38.4676 48.1621 35.7512C48.8391 32.7101 48.5558 29.9054 47.3287 27.6679C46.712 26.5477 45.8722 25.5657 44.8614 24.7825C43.8505 23.9994 42.6899 23.4316 41.4511 23.1142C40.7387 22.9122 40.0015 22.8114 39.261 22.8147C37.8339 22.8231 36.4318 23.1856 35.1798 23.8705C33.9266 23.1852 32.5226 22.8225 31.0943 22.8153C30.3539 22.812 29.6166 22.9128 28.9042 23.1147C27.666 23.4324 26.5059 24.0004 25.4954 24.7835C24.485 25.5667 23.6457 26.5485 23.0292 27.6684C21.8001 29.9215 21.5188 32.7106 22.1959 35.7517C22.8561 38.4838 24.1693 41.0149 26.023 43.1278C26.1178 43.2382 26.3225 43.4746 26.5746 43.7423C26.7661 44.0641 27.0218 44.3429 27.3257 44.5616C27.6297 44.7802 27.9753 44.934 28.3412 45.0134C28.7071 45.0928 29.0854 45.0961 29.4527 45.023C29.8199 44.9499 30.1681 44.8021 30.4758 44.5887C30.7834 44.3753 31.0439 44.1009 31.2409 43.7825C31.438 43.4642 31.5675 43.1087 31.6213 42.7381C31.6751 42.3676 31.6521 41.99 31.5538 41.6287C31.4554 41.2675 31.2838 40.9303 31.0496 40.6382L30.9865 40.5752C30.9 40.4728 30.805 40.3779 30.7027 40.2913C29.1327 38.7181 28.0121 36.7538 27.4568 34.6017C27.0313 32.6793 26.8423 29.3075 30.3735 28.3147C30.61 28.2522 30.8537 28.2205 31.0985 28.22C31.9696 28.2685 32.798 28.6133 33.4464 29.197L35.1798 30.6627L36.9131 29.197C37.5615 28.6133 38.3899 28.2685 39.261 28.22C39.5058 28.2194 39.7496 28.2512 39.986 28.3147C43.5157 29.3075 43.3266 32.6793 42.9027 34.6017C42.3885 36.6574 41.3455 38.5427 39.8772 40.0705C39.5678 40.27 39.3042 40.533 39.1053 40.8424L39.0579 40.8897L39.0735 40.9054C38.7404 41.429 38.5958 42.0506 38.6635 42.6676C38.7313 43.2845 39.0074 43.8599 39.4463 44.2987C39.8851 44.7376 40.4605 45.0137 41.0775 45.0815C41.6944 45.1493 42.316 45.0046 42.8397 44.6715L42.8714 44.7033C42.9501 44.6403 43.0131 44.5616 43.0923 44.4986C43.2251 44.3694 43.3501 44.2325 43.4662 44.0877Z" fill="#27884D"/>
        <path d="M34.7365 22.2087C36.3734 22.292 37.9943 21.8561 39.3693 20.9639C40.6431 19.9367 41.5543 18.5285 41.9693 16.9456C41.9693 16.9456 39.338 16.741 37.3526 18.1904C36.0709 19.2134 35.1534 20.6226 34.7365 22.2087Z" fill="#1B703D"/>
        <path opacity="0.3" d="M38.4549 21.3199C38.5705 21.322 38.6867 21.3168 38.8018 21.3043C37.5641 21.9305 36.1846 22.2236 34.7992 22.1548C34.9787 21.4756 35.249 20.8237 35.6028 20.2168C36.3818 20.9288 37.3996 21.3225 38.4549 21.3199Z" fill="#709352"/>
        <path d="M47.2788 27.6731C46.6621 26.5529 45.8224 25.5709 44.8115 24.7877C43.8006 24.0046 42.64 23.4368 41.4012 23.1194C40.6888 22.9174 39.9516 22.8166 39.2111 22.8199C37.784 22.8283 36.382 23.1908 35.1299 23.8757V30.6356L36.8632 29.1699C37.5116 28.5862 38.34 28.2414 39.2111 28.1929C39.4559 28.1923 39.6997 28.2241 39.9361 28.2876C43.4658 29.2804 43.2768 32.6522 42.8528 34.5746C42.3386 36.6303 41.2956 38.5156 39.8273 40.0434C39.5179 40.2429 39.2544 40.5059 39.0554 40.8152L39.008 40.8626L39.0236 40.8783C38.6928 41.4016 38.5498 42.022 38.6182 42.6374C38.6865 43.2528 38.9623 43.8267 39.4 44.2646C39.8377 44.7026 40.4114 44.9786 41.0268 45.0474C41.6421 45.1161 42.2626 44.9734 42.7861 44.6428L42.8179 44.6746C42.8966 44.6116 42.9596 44.533 43.0387 44.4699C43.1814 44.3507 43.3132 44.2189 43.4325 44.0762C43.7498 43.7571 44.0547 43.4259 44.3466 43.0835C46.1793 40.9752 47.4765 38.4561 48.1283 35.7397C48.7913 32.7158 48.508 29.9106 47.2788 27.6731Z" fill="#1B703D"/>
    </g>
    <defs>
        <filter id="filter0_dd_3743_39291" x="0.985107" y="0.278061" width="68.4375" height="69" filterUnits="userSpaceOnUse" color-interpolation-filters="sRGB">
            <feFlood flood-opacity="0" result="BackgroundImageFix"/>
            <feColorMatrix in="SourceAlpha" type="matrix" values="0 0 0 0 0 0 0 0 0 0 0 0 0 0 0 0 0 0 127 0" result="hardAlpha"/>
            <feOffset dy="0.5"/>
            <feGaussianBlur stdDeviation="1"/>
            <feColorMatrix type="matrix" values="0 0 0 0 0 0 0 0 0 0 0 0 0 0 0 0 0 0 0.01 0"/>
            <feBlend mode="normal" in2="BackgroundImageFix" result="effect1_dropShadow_3743_39291"/>
            <feColorMatrix in="SourceAlpha" type="matrix" values="0 0 0 0 0 0 0 0 0 0 0 0 0 0 0 0 0 0 127 0" result="hardAlpha"/>
            <feOffset dy="4"/>
            <feGaussianBlur stdDeviation="6"/>
            <feColorMatrix type="matrix" values="0 0 0 0 0 0 0 0 0 0 0 0 0 0 0 0 0 0 0.1 0"/>
            <feBlend mode="normal" in2="effect1_dropShadow_3743_39291" result="effect2_dropShadow_3743_39291"/>
            <feBlend mode="normal" in="SourceGraphic" in2="effect2_dropShadow_3743_39291" result="shape"/>
        </filter>
    </defs>
</svg>
