<svg width="19" height="19" viewBox="0 0 19 19" fill="none" xmlns="http://www.w3.org/2000/svg">
<path fill-rule="evenodd" clip-rule="evenodd" d="M7.85039 0.308838C3.87394 0.308838 0.650391 3.53239 0.650391 7.50884C0.650391 11.4853 3.87394 14.7088 7.85039 14.7088C9.18491 14.7088 10.4346 14.3458 11.5062 13.713L15.5776 17.7816L15.7472 17.9314C16.4533 18.4804 17.4743 18.4305 18.1232 17.7816C18.8261 17.0787 18.8261 15.939 18.1232 15.236L14.0546 11.1646C14.6873 10.0931 15.0504 8.84336 15.0504 7.50884C15.0504 3.53239 11.8268 0.308838 7.85039 0.308838ZM11.4504 7.50884C11.4504 5.52061 9.83862 3.90884 7.85039 3.90884C5.86217 3.90884 4.25039 5.52061 4.25039 7.50884C4.25039 9.49706 5.86217 11.1088 7.85039 11.1088C9.83862 11.1088 11.4504 9.49706 11.4504 7.50884Z" fill="white"/>
</svg>
